<?xml version="1.0" encoding="utf-8"?>
<!-- Generator: Adobe Illustrator 16.0.0, SVG Export Plug-In . SVG Version: 6.00 Build 0)  -->
<!DOCTYPE svg PUBLIC "-//W3C//DTD SVG 1.1//EN" "http://www.w3.org/Graphics/SVG/1.1/DTD/svg11.dtd">
<svg version="1.1" id="Layer_1" xmlns="http://www.w3.org/2000/svg" xmlns:xlink="http://www.w3.org/1999/xlink" x="0px" y="0px"
	 width="256px" height="256px" viewBox="0 0 256 256" enable-background="new 0 0 256 256" xml:space="preserve">
<rect fill="#FFFFFF" width="256" height="256"/>
<g>
	<g>
		<path fill="#107AAF" d="M238,237c0,1.105-0.896,2-2,2h-96c-1.104,0-2-0.895-2-2v-96c0-1.104,0.896-2,2-2h96c1.104,0,2,0.896,2,2
			V237z"/>
	</g>
	<g>
		<path fill="#4690D3" d="M238,236c0,1.105-0.896,2-2,2h-96c-1.104,0-2-0.895-2-2v-96c0-1.104,0.896-2,2-2h96c1.104,0,2,0.896,2,2
			V236z"/>
	</g>
</g>
<g>
	<g>
		<path fill="#189B2E" d="M118,237c0,1.105-0.896,2-2,2H20c-1.104,0-2-0.895-2-2v-96c0-1.104,0.896-2,2-2h96c1.104,0,2,0.896,2,2
			V237z"/>
	</g>
	<g>
		<path fill="#40B258" d="M118,236c0,1.105-0.896,2-2,2H20c-1.104,0-2-0.895-2-2v-96c0-1.104,0.896-2,2-2h96c1.104,0,2,0.896,2,2
			V236z"/>
	</g>
</g>
<g>
	<g>
		<path fill="#1466A3" d="M238,117c0,1.105-0.896,2-2,2h-96c-1.104,0-2-0.895-2-2V21c0-1.104,0.896-2,2-2h96c1.104,0,2,0.896,2,2
			V117z"/>
	</g>
	<g>
		<path fill="#3E69B2" d="M238,116c0,1.105-0.896,2-2,2h-96c-1.104,0-2-0.895-2-2V20c0-1.104,0.896-2,2-2h96c1.104,0,2,0.896,2,2
			V116z"/>
	</g>
</g>
<g>
	<g>
		<path fill="#A81D1D" d="M118,117c0,1.105-0.896,2-2,2H20c-1.104,0-2-0.895-2-2V21c0-1.104,0.896-2,2-2h96c1.104,0,2,0.896,2,2V117
			z"/>
	</g>
	<g>
		<path fill="#E13F40" d="M118,116c0,1.105-0.896,2-2,2H20c-1.104,0-2-0.895-2-2V20c0-1.104,0.896-2,2-2h96c1.104,0,2,0.896,2,2V116
			z"/>
	</g>
</g>
<g>
	<path fill="#436FB6" d="M159,38.168c0.07-0.013,0.111,0.032,0.113,0.091c0.005,0.172,0.002,0.344,0.002,0.516
		c0,19.035,0,38.072,0,57.105c0,0.173,0.003,0.345-0.002,0.516c-0.002,0.06-0.043,0.104-0.113,0.092
		C159,77.048,159,57.608,159,38.168z"/>
	<path fill="#436FB6" d="M217.779,88.911c-0.073,0.013-0.111-0.031-0.113-0.092c-0.007-0.172-0.003-0.344-0.003-0.516
		c0-13.984,0-27.968,0-41.952c0-0.172-0.004-0.344,0.003-0.516c0.002-0.059,0.04-0.104,0.113-0.09
		C217.779,60.134,217.779,74.522,217.779,88.911z"/>
	<path fill="#FFFFFF" d="M217.779,45.516c-0.193-0.238-0.459-0.334-0.752-0.373c-3.315-0.425-6.631-0.858-9.945-1.283
		c-4.035-0.518-8.07-1.043-12.105-1.563c-3.638-0.468-7.273-0.941-10.914-1.414c-4.054-0.528-8.105-1.049-12.162-1.568
		c-2.879-0.369-5.756-0.774-8.644-1.096c-1.261-0.141-2.534-0.131-3.798-0.28c-0.154,0-0.307,0-0.459,0c0,0.076,0,0.153,0,0.229
		c0.107,0.198,0.055,0.414,0.055,0.62c0.004,19.027,0.004,38.054,0,57.081c0,0.207,0.053,0.422-0.055,0.62c0,0.076,0,0.153,0,0.229
		c0.189,0,0.382,0,0.574,0c0.138-0.097,0.295-0.047,0.443-0.058c1.306-0.079,2.614-0.104,3.912-0.267
		c4.174-0.52,8.342-1.065,12.514-1.605c7.107-0.918,14.221-1.828,21.33-2.753c6.406-0.833,12.816-1.638,19.223-2.488
		c0.327-0.045,0.586-0.146,0.783-0.406c0-0.076,0-0.153,0-0.229c-0.107-0.198-0.055-0.414-0.055-0.619
		c-0.004-13.977-0.004-27.952,0-41.929c0-0.206-0.057-0.42,0.055-0.618C217.779,45.669,217.779,45.592,217.779,45.516z
		 M195.168,63.931c0.121-0.091,0.223-0.21,0.326-0.323c0.419-0.461,0.925-0.831,1.386-1.243c0.683-0.611,1.403-1.18,2.05-1.852
		c0.006-0.782,0.73-1.057,1.096-1.562c0.224-0.026,0.248,0.202,0.433,0.231c0.338-0.289,0.747-0.521,1.04-0.89
		c0.188-0.24,0.484-0.335,0.689-0.561c0.185-0.202,0.34-0.454,0.633-0.537c0.052-0.015,0.089-0.075,0.123-0.118
		c0.44-0.522,1.007-0.913,1.506-1.369c0.675-0.619,1.371-1.214,2.056-1.826c0.64-0.571,1.322-1.095,1.914-1.707
		c0.169-0.031,0.304,0.014,0.404,0.164c0.25-0.236,0.478-0.423,0.461-0.783c0.171-0.198,0.35-0.408,0.696-0.519
		c0.789-0.026,0.931,0.045,1.369,0.737c0,0.229,0,0.459,0,0.618c-0.234,0.697-0.877,0.612-1.35,0.84
		c-0.051,0.173-0.072,0.349,0.107,0.532c-0.641,0.345-1.025,0.979-1.642,1.35c-0.03,0.018-0.056,0.051-0.083,0.081
		c-0.551,0.626-1.222,1.125-1.826,1.691c-0.752,0.706-1.535,1.377-2.303,2.066c-0.332,0.299-0.637,0.642-1.001,0.896
		c-0.405,0.285-0.724,0.655-1.085,0.979c0.084,0.1,0.165,0.195,0.262,0.307c-0.514,0.548-0.994,1.084-1.816,1.026
		c-0.524,0.577-1.152,1.037-1.715,1.569c-0.365,0.344-0.721,0.713-1.119,1.021c-0.422,0.323-0.754,0.741-1.172,1.052
		c-0.476,0.353-0.85,0.798-1.289,1.184c-0.745-0.371-1.202-1.096-1.855-1.58C193.984,64.896,194.557,64.393,195.168,63.931z
		 M203.203,74.381c-0.605,0.319-1.155,0.657-1.65,1.078c-0.496,0.424-0.712,1.062-1.154,1.514c-0.496-0.03-0.916,0.314-1.41,0.212
		c0.248-1.074,0.88-1.901,1.652-2.658c0.769-0.755,1.698-1.178,2.729-1.447c0.188,0.22-0.052,0.426-0.054,0.644
		C203.316,73.966,203.105,74.158,203.203,74.381z M168.628,60.21c-1.192-0.985-2.374-1.959-3.59-2.962
		c0.354-0.369,0.795-0.572,1.183-0.845c0.656,0.344,1.098,0.942,1.737,1.304c0.47-0.415,1.074-0.633,1.487-1.114
		c-0.354-0.133-0.508-0.515-0.812-0.676c-0.314-0.167-0.463-0.513-0.865-0.612c0.479-0.346,0.898-0.648,1.352-0.976
		c0.574,0.42,1.136,0.871,1.64,1.393c0.479-0.379,1.035-0.663,1.511-1.144c-0.578-0.402-1.006-0.916-1.572-1.282
		c0.322-0.409,0.839-0.513,1.104-0.896c0.191,0,0.251,0.141,0.342,0.229c0.532,0.522,1.114,0.988,1.686,1.467
		c0.385,0.325,0.753,0.674,1.128,1.013c0.483,0.436,0.971,0.865,1.494,1.251c0.032,0.023,0.058,0.053,0.081,0.082
		c0.418,0.492,0.957,0.849,1.424,1.288c0.598,0.561,1.268,1.045,1.839,1.638c0.067,0.071,0.224-0.04,0.201,0.214
		c-0.226,0.348-0.722,0.489-1.073,0.86c-0.41-0.479-0.984-0.774-1.363-1.265c-0.082,0-0.16-0.025-0.191,0.003
		c-0.445,0.377-0.975,0.65-1.352,1.067c0.5,0.431,1.033,0.801,1.476,1.289c-0.363,0.294-0.784,0.504-1.08,0.846
		c-0.576-0.353-0.976-0.917-1.595-1.277c-0.481,0.356-0.979,0.724-1.478,1.091c0.54,0.405,1.054,0.802,1.504,1.282
		c-0.288,0.342-0.694,0.548-1.013,0.86c-0.031,0.029-0.112,0.003-0.164,0.003c-1.131-0.931-2.258-1.857-3.417-2.812
		c0.711-0.687,1.591-1.136,2.332-1.8c0.3,0.343,0.724,0.48,0.967,0.883c0.591-0.532,1.239-0.908,1.787-1.395
		c-0.218-0.4-0.586-0.568-0.896-0.856c0.576-0.352,1.018-0.8,1.582-1.099c-0.48-0.479-1.029-0.826-1.457-1.3
		c-0.461,0.455-1.058,0.725-1.555,1.183c-0.339-0.274-0.58-0.648-1.021-0.81c-0.574,0.409-1.19,0.85-1.837,1.308
		c0.283,0.27,0.543,0.594,1.005,0.831c-0.851,0.621-1.61,1.178-2.375,1.73C168.742,60.234,168.669,60.21,168.628,60.21z
		 M177.466,73.889c-0.271,0.566-0.081,1.279-0.616,1.703c-0.945,0.175-2.705,1.565-3.045,2.596
		c-0.315,0.217-0.722,0.146-1.072,0.278c-0.353,0.13-0.728,0.119-1.164,0.294c0.34-0.893,0.642-1.655,1.261-2.24
		c0.164-0.156,0.278-0.351,0.476-0.486c0.186-0.129,0.314-0.331,0.491-0.476c0.254-0.203,0.513-0.418,0.8-0.561
		c0.676-0.341,1.301-0.813,2.09-0.895C176.904,73.923,177.207,74.032,177.466,73.889z M173.893,84.438
		c-1.045-0.732-1.936-1.629-2.263-2.961c0.67-0.139,1.267,0.171,1.894,0.078c0.123,0.167,0.295,0.281,0.406,0.464
		c0.424,0.708,1.233,1.348,1.916,1.628c0.344,0.141,0.659,0.368,1.096,0.332c0.154,0.531,0.303,1.039,0.467,1.604
		C176.066,85.592,174.915,85.156,173.893,84.438z M185.855,80.875c-0.176,0.564-0.453,1.075-0.793,1.563
		c-0.342,0.486-0.761,0.891-1.191,1.274c-0.729,0.644-1.584,1.093-2.505,1.41c-0.247,0.084-0.496,0.157-0.794,0.249
		c0.133-0.513,0.248-0.973,0.382-1.483c0.101-0.173,0.323-0.271,0.536-0.37c0.445-0.207,0.84-0.478,1.224-0.79
		c0.33-0.269,0.619-0.555,0.886-0.89c0.196-0.248,0.299-0.525,0.479-0.827c0.585-0.149,1.221-0.312,1.854-0.472
		C186.12,80.699,185.887,80.771,185.855,80.875z M186.426,79.834c-0.582,0.227-1.201,0.346-1.814,0.457
		c-0.195,0.036-0.379,0.116-0.577,0.146c-0.171,0.026-0.358,0.125-0.485,0.363c-0.261,0.495-0.546,0.998-0.988,1.369
		c-0.225,0.188-0.438,0.421-0.697,0.526c-0.268,0.108-0.453,0.327-0.762,0.394c-0.252,0.053-0.555,0.194-0.744,0.523
		c0,0.047,0.033,0.173-0.008,0.267c-0.117,0.266-0.178,0.54-0.242,0.822c-0.059,0.253-0.133,0.522-0.229,0.761
		c-0.173,0.437-0.312,0.941-0.829,1.135c-0.066,0.024-0.146,0.016-0.217,0.02c-0.441-0.346-0.666-0.783-0.794-1.333
		c-0.12-0.513-0.229-1.042-0.433-1.539c-0.028-0.077-0.084-0.117-0.139-0.204c-0.688-0.075-1.351-0.327-1.892-0.759
		c-0.56-0.447-1.089-0.96-1.321-1.611c-0.574-0.236-1.163-0.097-1.708-0.292c-0.136-0.049-0.308,0.017-0.456-0.012
		c-0.578-0.108-1.177-0.124-1.71-0.443c-0.175-0.105-0.256-0.19-0.241-0.394c0.264-0.403,0.725-0.531,1.141-0.634
		c0.697-0.172,1.393-0.362,2.103-0.475c0.197-0.032,0.377-0.112,0.579-0.141c0.165-0.023,0.362-0.142,0.465-0.394
		c0.206-0.509,0.525-0.981,0.967-1.312c0.496-0.373,0.961-0.818,1.609-0.951c0.186-0.037,0.323-0.249,0.545-0.175
		c0.26-0.515,0.354-1.061,0.505-1.588c0.177-0.616,0.384-1.202,0.864-1.636c0.129,0,0.243,0,0.316,0
		c0.611,0.405,0.729,1.036,0.901,1.654c0.128,0.46,0.171,0.95,0.414,1.396c0.47,0.087,0.879,0.292,1.29,0.506
		c0.66,0.344,1.227,0.784,1.546,1.479c0.188,0.409,0.493,0.571,0.951,0.604c0.427,0.028,0.858,0.104,1.286,0.188
		c0.279,0.054,0.576,0.096,0.861,0.148c0.262,0.049,0.508,0.17,0.717,0.348c0.074,0.063,0.029,0.141,0.049,0.226
		C187.084,79.614,186.734,79.713,186.426,79.834z M180.664,73.752c1.216,0.275,2.324,0.604,3.286,1.346
		c0.967,0.748,1.718,1.621,2.04,2.925c-0.633-0.088-1.231-0.111-1.842-0.277c-0.676-1.222-1.744-1.987-3.078-2.395
		C180.938,74.824,180.809,74.31,180.664,73.752z M190.793,70.93c0.105,0.945-0.445,1.435-1.255,1.793c-0.171,0-0.399,0-0.56,0
		c-0.545,0.181-0.752,0.677-1.18,0.925c-0.42,0.246-0.65,0.721-1.122,0.979c0.009,0.502-0.088,1.014-0.532,1.434
		c-0.795-1.073-1.77-1.919-3.098-2.397c0.461-0.338,0.926-0.52,1.489-0.479c0.759-0.653,1.53-1.318,2.338-2.01
		c0-0.161,0-0.365,0-0.437c0.362-1.077,1.147-1.285,2.056-1.361c0.322-0.432,0.868-0.666,1.217-1.118
		c0.604,0.524,1.203,1.044,1.83,1.59C191.625,70.299,191.208,70.615,190.793,70.93z M196.613,72.625
		c-0.784-0.054-1.491-0.222-1.904-1.042c0-0.165,0-0.393,0-0.597c-0.189-0.346-0.553-0.462-0.802-0.713
		c-0.248-0.249-0.447-0.56-0.798-0.698c-0.051-0.02-0.086-0.076-0.125-0.12c-0.418-0.491-0.953-0.851-1.422-1.286
		c-0.604-0.558-1.24-1.076-1.852-1.626c-0.595-0.537-1.214-1.048-1.812-1.583c-0.627-0.559-1.268-1.102-1.896-1.663
		c-0.596-0.534-1.245-1.012-1.803-1.593c-0.604,0.039-1.085-0.247-1.525-0.61c-0.228-0.189-0.403-0.44-0.751-0.564
		c0.152-0.153,0.277-0.276,0.407-0.409c-0.569-0.51-1.106-1.015-1.67-1.489c-0.672-0.567-1.327-1.15-1.979-1.739
		c-0.596-0.537-1.213-1.049-1.812-1.583c-0.61-0.548-1.242-1.073-1.853-1.624c-0.611-0.547-1.248-1.066-1.854-1.62
		c-0.246-0.222-0.526-0.413-0.752-0.662c-0.228-0.252-0.585-0.344-0.789-0.744c0.03-0.018,0.112-0.054,0.185-0.108
		c0.094-0.069,0.027-0.178,0.058-0.287c-0.282-0.144-0.529-0.321-0.86-0.409c-0.508-0.135-1.021-0.343-1.215-0.93
		c-0.02-0.049-0.062-0.089-0.092-0.126c-0.115-0.498,0.062-0.904,0.459-1.17c0.387-0.257,0.848-0.362,1.31-0.257
		c0.271,0.06,0.546,0.18,0.778,0.33c0.261,0.17,0.443,0.419,0.544,0.74c0.106,0.357,0.326,0.653,0.663,0.864
		c0.188,0.081,0.306-0.229,0.544-0.152c0.101,0.114,0.196,0.23,0.3,0.343c0.469,0.519,1.038,0.93,1.551,1.403
		c0.344,0.315,0.678,0.646,1.034,0.948c0.741,0.63,1.46,1.288,2.188,1.935c0.334,0.299,0.673,0.596,0.992,0.911
		c0.228,0.222,0.52,0.355,0.73,0.6c0.205,0.236,0.41,0.49,0.717,0.618c0.064,0.027,0.113,0.101,0.162,0.159
		c0.512,0.585,1.148,1.033,1.712,1.567c0.308,0.291,0.638,0.571,0.913,0.824c0.288,0.113,0.354-0.159,0.576-0.226
		c0.393,0.419,0.868,0.785,1.207,1.366c0,0.103,0,0.27,0,0.4c0.516,0.613,1.141,1.05,1.688,1.567
		c0.651,0.613,1.348,1.185,2.012,1.79c0.734,0.667,1.479,1.324,2.221,1.985c0.727,0.65,1.453,1.296,2.176,1.949
		c0.682,0.613,1.397,1.186,2.051,1.833c0.101,0.099,0.236,0.165,0.389,0.267c1.015-0.148,1.781,0.662,1.654,1.576
		c0.727,0.484,1.26,1.205,1.985,1.711c0.201,0.098,0.438-0.034,0.646,0.091c0.182,0.109,0.418,0.092,0.608,0.277
		c-0.286,0.267-0.68,0.375-0.95,0.649c-0.287,0.292-0.674,0.478-0.926,0.813c-0.24,0.321-0.435,0.68-0.732,0.96
		c-0.401-0.309-0.418-0.75-0.405-1.207C197.863,73.719,197.232,73.165,196.613,72.625z M203.302,83.346
		c-0.7-0.088-1.309-0.301-1.899-0.619c-0.617-0.333-1.148-0.762-1.575-1.29c-0.413-0.507-0.679-1.123-0.874-1.755
		c0.271-0.243,0.512,0.117,0.773,0.045c0.287-0.077,0.531,0.113,0.821,0.143c0.187,0.344,0.418,0.666,0.692,0.968
		c0.302,0.331,0.92,0.797,1.385,0.956c0.327,0.113,0.538,0.318,0.581,0.692c0.03,0.244,0.134,0.479,0.198,0.717
		C203.427,83.295,203.318,83.307,203.302,83.346z M205.836,83.167c0.006-0.467,0.311-0.868,0.219-1.356
		c1.129-0.546,2.059-1.297,2.491-2.473c0.497-0.137,0.938-0.258,1.418-0.389C209.759,80.504,208.206,82.485,205.836,83.167z
		 M209.902,78.475c-0.451,0.096-0.885,0.274-1.351,0.353c-0.168,0.026-0.362,0.153-0.461,0.405c-0.226,0.592-0.644,1.07-1.123,1.484
		c-0.342,0.293-0.741,0.5-1.128,0.669c-0.264,0.271-0.271,0.619-0.33,0.922c-0.074,0.37-0.195,0.73-0.269,1.102
		c-0.056,0.279-0.207,0.585-0.507,0.783c-0.1,0-0.228,0-0.364,0c-0.56-0.774-0.55-1.73-0.873-2.601
		c-1.162-0.32-2.101-0.954-2.498-2.167c-0.447-0.172-0.914-0.117-1.354-0.258c-0.271-0.086-0.576-0.041-0.871-0.112
		c-0.391-0.091-0.73-0.202-0.946-0.52c0.151-0.576,0.728-0.517,1.103-0.759c0.553-0.008,1.039-0.281,1.577-0.356
		c0.279-0.039,0.504-0.194,0.64-0.514c0.211-0.506,0.529-0.967,0.977-1.309c0.354-0.273,0.742-0.506,1.152-0.681
		c0.17-0.073,0.254-0.206,0.367-0.292c0.045-0.468,0.184-0.9,0.32-1.325c0.053-0.158-0.001-0.315,0.096-0.479
		c0.164-0.287,0.312-0.579,0.594-0.787c0.137-0.044,0.188,0.177,0.328,0.133c0.479,0.761,0.556,1.648,0.773,2.502
		c0.326,0.219,0.768,0.248,1.053,0.491c0.281,0.243,0.617,0.422,0.844,0.772c0.215,0.332,0.379,0.699,0.595,1.01
		c0.438,0.06,0.845,0.135,1.243,0.25c0.24,0.068,0.503,0.053,0.757,0.105c0.334,0.07,0.573,0.201,0.786,0.474
		C210.742,78.163,210.377,78.375,209.902,78.475z M205.962,72.988c0.974,0.188,1.847,0.575,2.563,1.231
		c0.733,0.667,1.291,1.46,1.461,2.511c-0.426,0.057-0.744-0.217-1.043-0.108c-0.351-0.117-0.445-0.374-0.601-0.62
		c-0.379-0.607-0.909-1.078-1.575-1.386c-0.177-0.08-0.381-0.116-0.557-0.322C206.133,73.894,205.906,73.471,205.962,72.988z
		 M212.105,61.602c-0.397-0.089-0.617-0.401-0.877-0.654c-0.264-0.252-0.518-0.513-0.793-0.79c0.209-0.176,0.42-0.354,0.652-0.554
		c-0.221-0.313-0.457-0.502-0.663-0.716c-0.196-0.208-0.403-0.406-0.61-0.613c-0.193,0.194-0.392,0.39-0.601,0.6
		c-0.263-0.145-0.415-0.368-0.604-0.544c-0.183-0.17-0.354-0.35-0.527-0.526c-0.296,0.333-0.748,0.495-1.007,0.946
		c0.347,0.347,0.704,0.703,1.063,1.063c-0.238,0.195-0.393,0.471-0.688,0.575c0.435,0.433,0.864,0.865,1.305,1.303
		c0.195-0.194,0.392-0.391,0.597-0.598c0.703,0.352,1.099,1.004,1.652,1.452c0,0.06,0.018,0.119-0.004,0.133
		c-0.773,0.556-1.366,1.305-2.059,1.95c-0.109,0.103-0.195,0.253-0.455,0.117c-0.174-0.183-0.41-0.432-0.641-0.671
		c0.354-0.268,0.655-0.631,0.959-0.914c-0.353-0.352-0.687-0.686-1.033-1.035c-0.279,0.279-0.633,0.634-0.965,0.964
		c-0.299-0.296-0.562-0.559-0.84-0.839c0.389-0.253,0.691-0.645,1.047-0.969c-0.258-0.473-0.74-0.617-1.051-1.017
		c-0.395,0.37-0.713,0.765-1.132,0.966c-0.276-0.278-0.541-0.542-0.825-0.826c0.245-0.111,0.432-0.337,0.633-0.543
		c0.516-0.526,1.092-0.986,1.633-1.482c0.357-0.328,0.693-0.687,1.078-0.985c0.521-0.408,0.942-0.929,1.461-1.329
		c0.393-0.303,0.705-0.675,1.051-0.957c0.255,0.253,0.513,0.511,0.802,0.802c-0.313,0.272-0.57,0.672-0.981,0.847
		c0.336,0.334,0.664,0.663,1.021,1.021c0.305-0.256,0.672-0.563,1.021-0.855c0.248,0.247,0.498,0.498,0.773,0.774
		c0,0.019,0,0.095,0,0.168c-0.407,0.162-0.602,0.558-0.961,0.817c0.29,0.383,0.635,0.666,0.972,1.028
		c0.312-0.421,0.771-0.596,1.042-0.951c0.25,0.25,0.498,0.499,0.743,0.742C213.665,60.251,212.771,60.796,212.105,61.602z"/>
	<path fill="#FFFFFF" d="M181.406,81.354c-0.627-0.118-1.152,0.172-1.729,0.085c0,0.379,0,0.72,0,1.021
		c-0.146,0.289-0.274,0.542-0.413,0.817c-0.287-0.204-0.285-0.594-0.523-0.862c0-0.295,0-0.616,0-0.942
		c-0.557,0.232-1.146-0.05-1.688,0.18c-0.229-0.136-0.13-0.367-0.143-0.564c-0.014-0.208-0.002-0.418-0.002-0.612
		c-0.066-0.068-0.118-0.122-0.172-0.176c-0.818,0.333-1.52-0.019-2.273-0.385c0.352-0.172,0.648-0.342,0.941-0.519
		c0.234-0.142,0.537-0.204,0.816-0.23c0.209-0.021,0.385-0.09,0.572-0.182c-0.027-0.456,0.05-0.925-0.055-1.407
		c0.479-0.247,1.062-0.112,1.646-0.153c0-0.262,0-0.505,0-0.62c0.143-0.437,0.414-0.621,0.641-0.867
		c0.513,0.492,0.777,1.063,0.601,1.785c0.565,0.196,1.088-0.149,1.64-0.043c0,0.409,0,0.806,0,1.244c0.412,0,0.821-0.061,1.2,0.018
		c0.337,0.07,0.646,0.282,0.979,0.369c0.021,0.133-0.029,0.158-0.141,0.196c-0.199,0.069-0.371,0.211-0.565,0.294
		c-0.181,0.078-0.351,0.2-0.568,0.157c-0.264-0.054-0.478,0.201-0.767,0.093C181.406,80.484,181.406,80.88,181.406,81.354z"/>
	<path fill="#FFFFFF" d="M201.104,78.298c0.592-0.251,1.065-0.687,1.738-0.637c0-0.459,0-0.895,0-1.309
		c0.074-0.074,0.129-0.129,0.184-0.183c0.344,0,0.688,0,1.07,0c0.01-0.199,0.021-0.401,0.032-0.634
		c0.213-0.142,0.247-0.464,0.506-0.613c0.274,0.161,0.343,0.483,0.517,0.754c0,0.242,0,0.511,0,0.795
		c0.156,0.057,0.299,0.05,0.468-0.015c0.262-0.101,0.541-0.145,0.795,0.096c0,0.313,0,0.632,0,0.972c0.337,0,0.655,0,0.948,0
		c0.209,0.199,0.507,0.2,0.656,0.425c-0.185,0.244-0.547,0.222-0.703,0.484c-0.328,0.111-0.689-0.097-0.99,0.145
		c0.171,0.33,0.048,0.664,0.109,1.032c-0.437-0.054-0.807,0.197-1.252,0.098c-0.065,0.289-0.009,0.572-0.045,0.884
		c-0.146,0.227-0.312,0.482-0.488,0.752c-0.244-0.222-0.353-0.516-0.53-0.778c0-0.248,0-0.516,0-0.805
		c-0.408,0.148-0.823,0.04-1.254,0.088c0-0.396,0-0.754,0-1.093c-0.099-0.104-0.198-0.051-0.286-0.064
		c-0.174-0.027-0.278,0.187-0.473,0.119c-0.067-0.022-0.131-0.051-0.195-0.081C201.633,78.615,201.373,78.475,201.104,78.298z"/>
</g>
<path fill="#FFFFFF" d="M95.571,68.716C78.833,77.393,62.303,85.96,45.667,94.583c0-17.352,0-34.528,0-51.905
	C62.308,51.36,78.838,59.985,95.571,68.716z"/>
<rect x="158.333" y="164.807" fill="#FFFFFF" width="60" height="6.352"/>
<rect x="158.333" y="178.382" fill="#FFFFFF" width="60" height="6.351"/>
<rect x="158.333" y="191.521" fill="#FFFFFF" width="60" height="6.351"/>
<rect x="158.333" y="205.316" fill="#FFFFFF" width="35.036" height="6.351"/>
<path fill="#FFFFFF" stroke="#FFFFFF" stroke-width="2" stroke-miterlimit="10" d="M96.583,186.12H68.081v8.485h20.233
	c-1.026,11.844-10.879,16.906-20.203,16.906c-11.905,0-22.349-9.386-22.349-22.596c0-12.745,9.947-22.598,22.38-22.598
	c9.605,0,15.229,6.123,15.229,6.123l5.907-6.155c0,0-7.583-8.454-21.447-8.454c-17.656,0-31.302,14.92-31.302,31.084
	C36.53,204.613,49.368,220,68.298,220c16.628,0,28.752-11.407,28.752-28.255C97.05,188.17,96.583,186.12,96.583,186.12
	L96.583,186.12z"/>
</svg>
