<?xml version="1.0" encoding="utf-8"?>
<!-- Generator: Adobe Illustrator 16.0.0, SVG Export Plug-In . SVG Version: 6.00 Build 0)  -->
<!DOCTYPE svg PUBLIC "-//W3C//DTD SVG 1.1//EN" "http://www.w3.org/Graphics/SVG/1.1/DTD/svg11.dtd">
<svg version="1.1" id="Layer_1" xmlns="http://www.w3.org/2000/svg" xmlns:xlink="http://www.w3.org/1999/xlink" x="0px" y="0px"
	 width="256px" height="256px" viewBox="0 0 256 256" enable-background="new 0 0 256 256" xml:space="preserve">
<g>
	<path fill-rule="evenodd" clip-rule="evenodd" fill="#FFFFFF" d="M121.747,253.854c-4.209-0.509-8.446-0.862-12.621-1.564
		c-5.472-0.924-10.896-2.121-16.277-3.188c1.208-13.717,13.898-30.839,35.537-30.761c21.611,0.076,34.104,17.212,35.286,30.761
		c-5.382,1.067-10.805,2.267-16.276,3.188c-4.175,0.702-8.413,1.056-12.622,1.564C130.431,253.854,126.088,253.854,121.747,253.854z
		"/>
	<path fill-rule="evenodd" clip-rule="evenodd" fill="#FFFFFF" d="M256.521,133.53c-0.515,4.159-0.872,8.347-1.583,12.474
		c-0.934,5.409-2.146,10.768-3.227,16.088c-13.898-1.2-31.201-13.756-31.124-35.124c0.078-21.335,17.392-33.701,31.124-34.871
		c1.081,5.319,2.294,10.678,3.228,16.086c0.71,4.127,1.067,8.313,1.582,12.472C256.521,124.947,256.521,129.239,256.521,133.53z"/>
	<path fill-rule="evenodd" clip-rule="evenodd" fill="#FFFFFF" d="M0,120.655c0.514-4.159,0.871-8.345,1.582-12.472
		c0.933-5.408,2.146-10.768,3.226-16.086c13.915,1.198,31.206,13.771,31.125,35.117c-0.081,21.383-17.431,33.709-31.125,34.878
		c-1.08-5.32-2.293-10.679-3.226-16.088C0.87,141.877,0.514,137.689,0,133.53C0,129.239,0,124.947,0,120.655z"/>
	<path fill-rule="evenodd" clip-rule="evenodd" fill="#FFFFFF" d="M134.772,0.333c4.209,0.508,8.445,0.86,12.621,1.563
		c5.472,0.922,10.895,2.121,16.277,3.188c-1.215,13.752-13.935,30.839-35.537,30.762C106.54,35.767,94.035,18.652,92.85,5.084
		c5.381-1.067,10.804-2.266,16.275-3.188c4.176-0.703,8.412-1.056,12.621-1.563C126.088,0.333,130.431,0.333,134.772,0.333z"/>
	<path fill-rule="evenodd" clip-rule="evenodd" fill="#FFFFFF" d="M66.233,16.193c10.97,13.789,9.273,34.395-3.561,46.71
		c-13.589,13.04-34.052,12.782-46.587,2.861C28.108,44.654,44.814,28.192,66.233,16.193z"/>
	<path fill-rule="evenodd" clip-rule="evenodd" fill="#FFFFFF" d="M190.302,16.215c21.404,11.965,38.042,28.408,50.068,49.42
		c-10.423,9.047-30.823,11.061-45.092-1.457C181.095,51.735,178.817,30.18,190.302,16.215z"/>
	<path fill-rule="evenodd" clip-rule="evenodd" fill="#FFFFFF" d="M240.446,188.419c-12.123,21.162-28.758,37.606-50.025,49.484
		c-9.363-10.72-11.017-31.019,1.849-44.966C204.874,179.274,226.671,177.169,240.446,188.419z"/>
	<path fill-rule="evenodd" clip-rule="evenodd" fill="#FFFFFF" d="M16.077,188.428c12.549-9.929,33.009-10.184,46.596,2.855
		c12.838,12.319,14.534,32.942,3.575,46.688C44.838,226.082,28.166,209.547,16.077,188.428z"/>
	<path fill-rule="evenodd" clip-rule="evenodd" fill="#FFFFFF" d="M72.065,127.027c0.039,6.399-5.462,11.869-11.94,11.869
		c-6.476,0.004-11.982-5.463-11.948-11.86c0.035-6.311,5.427-11.672,11.814-11.746C66.468,115.214,72.026,120.618,72.065,127.027z"
		/>
	<path fill-rule="evenodd" clip-rule="evenodd" fill="#FFFFFF" d="M196.516,138.896c-6.478,0.069-12.028-5.34-12.061-11.749
		c-0.032-6.396,5.477-11.861,11.95-11.856c6.38,0.004,11.831,5.315,11.937,11.624C208.447,133.311,203.002,138.828,196.516,138.896z
		"/>
	<path fill-rule="evenodd" clip-rule="evenodd" fill="#FFFFFF" d="M128.147,71.556c-6.484-0.066-11.933-5.581-11.831-11.977
		c0.103-6.407,5.717-11.768,12.18-11.63c6.382,0.135,11.736,5.553,11.706,11.851C140.174,66.208,134.624,71.62,128.147,71.556z"/>
	<path fill-rule="evenodd" clip-rule="evenodd" fill="#FFFFFF" d="M128.326,182.632c6.485,0.039,11.953,5.533,11.876,11.931
		c-0.076,6.411-5.665,11.789-12.135,11.677c-6.385-0.111-11.754-5.51-11.751-11.81C116.319,188.028,121.854,182.593,128.326,182.632
		z"/>
	<path fill-rule="evenodd" clip-rule="evenodd" fill="#FFFFFF" d="M188.328,79.532c-0.023,6.461-5.528,11.844-12.006,11.737
		c-6.436-0.107-11.749-5.383-11.814-11.729c-0.065-6.415,5.387-11.813,11.928-11.812C183.011,67.728,188.352,73.029,188.328,79.532z
		"/>
	<path fill-rule="evenodd" clip-rule="evenodd" fill="#FFFFFF" d="M80.162,186.459c-6.581,0.035-11.959-5.235-11.97-11.727
		c-0.012-6.467,5.425-11.856,11.926-11.815c6.412,0.037,11.763,5.279,11.894,11.65C92.143,180.961,86.698,186.424,80.162,186.459z"
		/>
	<path fill-rule="evenodd" clip-rule="evenodd" fill="#FFFFFF" d="M188.326,174.604c0.045,6.507-5.275,11.835-11.839,11.854
		c-6.549,0.02-11.992-5.324-11.98-11.764c0.011-6.403,5.567-11.852,12.017-11.782C182.964,162.984,188.283,168.252,188.326,174.604z
		"/>
	<path fill-rule="evenodd" clip-rule="evenodd" fill="#FFFFFF" d="M68.191,79.41c0.029-6.483,5.43-11.735,12.015-11.682
		c6.425,0.052,11.755,5.326,11.809,11.687c0.052,6.379-5.471,11.863-11.941,11.856C73.551,91.264,68.162,85.884,68.191,79.41z"/>
</g>
</svg>
