<?xml version="1.0" encoding="utf-8"?>
<!-- Generator: Adobe Illustrator 16.0.0, SVG Export Plug-In . SVG Version: 6.00 Build 0)  -->
<!DOCTYPE svg PUBLIC "-//W3C//DTD SVG 1.1//EN" "http://www.w3.org/Graphics/SVG/1.1/DTD/svg11.dtd">
<svg version="1.1" id="Layer_1" xmlns="http://www.w3.org/2000/svg" xmlns:xlink="http://www.w3.org/1999/xlink" x="0px" y="0px"
	 width="64px" height="64px" viewBox="0 0 64 64" enable-background="new 0 0 64 64" xml:space="preserve">
<g>
	<path fill-rule="evenodd" clip-rule="evenodd" fill="#3470D2" d="M0,0.25c0.079-0.014,0.121,0.034,0.123,0.099
		c0.006,0.188,0.002,0.375,0.002,0.562c0,20.726,0,41.453,0,62.178c0,0.188,0.004,0.375-0.002,0.562
		C0.121,63.716,0.079,63.764,0,63.75C0,42.583,0,21.417,0,0.25z"/>
	<path fill-rule="evenodd" clip-rule="evenodd" fill="#3470D2" d="M64,55.5c-0.079,0.014-0.121-0.034-0.123-0.1
		c-0.007-0.187-0.003-0.374-0.003-0.562c0-15.226,0-30.452,0-45.678c0-0.187-0.004-0.374,0.003-0.562
		C63.879,8.534,63.921,8.486,64,8.5C64,24.167,64,39.833,64,55.5z"/>
	<path fill="#FFFFFF" d="M64,8.25c-0.211-0.259-0.5-0.364-0.817-0.406c-3.611-0.463-7.219-0.935-10.83-1.397
		c-4.394-0.563-8.787-1.136-13.181-1.702C35.211,4.235,31.25,3.72,27.29,3.205c-4.415-0.574-8.829-1.142-13.244-1.707
		c-3.136-0.402-6.266-0.843-9.41-1.193C3.263,0.152,1.875,0.162,0.5,0C0.333,0,0.167,0,0,0c0,0.083,0,0.167,0,0.25
		C0.117,0.466,0.059,0.7,0.059,0.925c0.004,20.717,0.004,41.434,0,62.15c0,0.225,0.058,0.459-0.059,0.675c0,0.083,0,0.167,0,0.25
		c0.208,0,0.417,0,0.625,0c0.151-0.105,0.322-0.052,0.485-0.062c1.42-0.087,2.847-0.115,4.258-0.291
		c4.544-0.567,9.084-1.16,13.625-1.748c7.741-1.001,15.484-1.991,23.225-2.999c6.976-0.906,13.956-1.783,20.93-2.709
		c0.356-0.048,0.638-0.159,0.852-0.441c0-0.083,0-0.167,0-0.25c-0.117-0.216-0.059-0.45-0.059-0.674
		c-0.004-15.218-0.004-30.434,0-45.653c0-0.224-0.059-0.457,0.059-0.673C64,8.417,64,8.333,64,8.25z M39.382,28.301
		c0.131-0.099,0.242-0.229,0.354-0.352c0.456-0.502,1.006-0.904,1.509-1.353c0.743-0.665,1.528-1.284,2.231-2.016
		c0.006-0.851,0.796-1.151,1.193-1.701c0.242-0.028,0.271,0.22,0.469,0.252c0.369-0.314,0.813-0.568,1.133-0.969
		c0.206-0.261,0.528-0.365,0.752-0.61c0.2-0.22,0.371-0.494,0.691-0.584c0.053-0.017,0.093-0.082,0.132-0.129
		c0.481-0.568,1.095-0.994,1.639-1.491c0.734-0.673,1.493-1.322,2.237-1.988c0.695-0.622,1.44-1.192,2.085-1.858
		c0.183-0.034,0.329,0.015,0.439,0.178c0.273-0.257,0.521-0.461,0.502-0.853c0.187-0.215,0.382-0.444,0.761-0.565
		c0.859-0.028,1.011,0.049,1.489,0.803c0,0.25,0,0.5,0,0.673c-0.255,0.759-0.952,0.666-1.467,0.915
		c-0.056,0.188-0.08,0.379,0.117,0.579c-0.697,0.375-1.117,1.066-1.786,1.469c-0.035,0.02-0.061,0.056-0.09,0.088
		c-0.599,0.682-1.331,1.224-1.991,1.842c-0.817,0.768-1.671,1.499-2.505,2.25c-0.362,0.325-0.693,0.698-1.09,0.976
		c-0.443,0.31-0.787,0.713-1.182,1.066c0.092,0.108,0.18,0.212,0.284,0.334c-0.558,0.597-1.083,1.181-1.978,1.117
		c-0.571,0.628-1.255,1.129-1.866,1.708c-0.398,0.375-0.785,0.777-1.22,1.112c-0.459,0.352-0.82,0.807-1.275,1.145
		c-0.517,0.384-0.924,0.869-1.404,1.289c-0.812-0.404-1.309-1.194-2.021-1.721C38.092,29.352,38.716,28.804,39.382,28.301z
		 M48.13,39.679c-0.66,0.348-1.258,0.715-1.797,1.174c-0.542,0.462-0.776,1.156-1.259,1.648c-0.538-0.032-0.995,0.343-1.535,0.231
		c0.271-1.17,0.958-2.07,1.799-2.894c0.837-0.822,1.851-1.283,2.973-1.576c0.207,0.24-0.055,0.464-0.056,0.701
		C48.254,39.227,48.023,39.436,48.13,39.679z M10.484,24.25c-1.299-1.072-2.585-2.133-3.91-3.225
		c0.388-0.402,0.867-0.622,1.288-0.92c0.715,0.374,1.195,1.026,1.892,1.42c0.511-0.452,1.171-0.689,1.619-1.213
		c-0.383-0.145-0.551-0.56-0.884-0.736c-0.343-0.181-0.504-0.558-0.943-0.666c0.521-0.377,0.979-0.706,1.47-1.062
		c0.627,0.457,1.237,0.948,1.785,1.516c0.524-0.413,1.128-0.721,1.643-1.245c-0.629-0.438-1.095-0.997-1.712-1.396
		c0.352-0.445,0.914-0.559,1.204-0.976c0.208,0,0.273,0.153,0.37,0.249c0.582,0.569,1.215,1.076,1.835,1.598
		c0.419,0.353,0.821,0.734,1.229,1.103c0.526,0.475,1.057,0.942,1.627,1.362c0.034,0.025,0.062,0.058,0.088,0.089
		c0.455,0.535,1.042,0.924,1.55,1.402c0.651,0.61,1.379,1.138,2.002,1.783c0.074,0.077,0.243-0.043,0.219,0.233
		c-0.244,0.379-0.785,0.532-1.168,0.936c-0.447-0.522-1.073-0.843-1.486-1.377c-0.088,0-0.173-0.027-0.21,0.004
		c-0.484,0.411-1.058,0.708-1.469,1.162c0.545,0.469,1.125,0.872,1.604,1.404c-0.395,0.32-0.853,0.548-1.176,0.921
		c-0.627-0.384-1.061-0.998-1.734-1.391c-0.526,0.388-1.068,0.788-1.608,1.188c0.588,0.441,1.148,0.873,1.637,1.396
		c-0.315,0.372-0.757,0.597-1.103,0.936c-0.033,0.032-0.122,0.004-0.178,0.004c-1.231-1.013-2.458-2.022-3.721-3.062
		c0.774-0.748,1.732-1.237,2.539-1.96c0.327,0.373,0.789,0.523,1.054,0.962c0.642-0.579,1.348-0.989,1.944-1.519
		c-0.235-0.436-0.637-0.618-0.974-0.932c0.627-0.383,1.108-0.871,1.723-1.197c-0.523-0.521-1.121-0.899-1.587-1.415
		c-0.501,0.495-1.149,0.789-1.691,1.288c-0.369-0.299-0.633-0.706-1.112-0.882c-0.625,0.445-1.296,0.925-1.998,1.424
		c0.307,0.294,0.592,0.647,1.093,0.904c-0.926,0.676-1.754,1.283-2.587,1.884C10.608,24.276,10.528,24.25,10.484,24.25z
		 M20.107,39.144c-0.295,0.616-0.089,1.392-0.672,1.854c-1.03,0.191-2.946,1.704-3.315,2.826c-0.345,0.237-0.786,0.16-1.168,0.303
		c-0.383,0.142-0.792,0.13-1.267,0.32c0.368-0.972,0.697-1.801,1.371-2.438c0.179-0.17,0.304-0.382,0.517-0.529
		c0.201-0.141,0.344-0.361,0.536-0.518c0.276-0.221,0.555-0.455,0.868-0.611c0.737-0.371,1.417-0.885,2.276-0.974
		C19.494,39.181,19.825,39.299,20.107,39.144z M16.215,50.63c-1.137-0.797-2.107-1.774-2.462-3.224
		c0.729-0.151,1.379,0.187,2.061,0.085c0.133,0.183,0.321,0.306,0.442,0.506c0.461,0.77,1.343,1.468,2.087,1.773
		c0.373,0.153,0.717,0.401,1.192,0.361c0.168,0.578,0.328,1.131,0.506,1.746C18.583,51.886,17.329,51.411,16.215,50.63z
		 M29.24,46.75c-0.188,0.614-0.491,1.171-0.863,1.702c-0.37,0.529-0.826,0.97-1.296,1.387c-0.794,0.701-1.725,1.19-2.728,1.535
		c-0.268,0.092-0.54,0.171-0.864,0.271c0.145-0.558,0.272-1.059,0.416-1.615c0.109-0.188,0.351-0.295,0.583-0.402
		c0.485-0.225,0.915-0.52,1.333-0.86c0.359-0.293,0.673-0.604,0.962-0.968c0.215-0.27,0.327-0.572,0.521-0.901
		c0.637-0.162,1.329-0.34,2.016-0.514C29.53,46.558,29.275,46.637,29.24,46.75z M29.862,45.617
		c-0.634,0.247-1.308,0.377-1.976,0.497c-0.214,0.039-0.412,0.126-0.629,0.159c-0.186,0.029-0.391,0.136-0.529,0.395
		c-0.284,0.539-0.594,1.087-1.078,1.491c-0.244,0.205-0.476,0.458-0.76,0.573c-0.289,0.118-0.493,0.356-0.828,0.429
		c-0.275,0.058-0.603,0.211-0.812,0.57c0,0.051,0.038,0.189-0.007,0.291c-0.128,0.289-0.192,0.588-0.263,0.895
		c-0.063,0.276-0.146,0.569-0.25,0.829c-0.188,0.475-0.337,1.025-0.903,1.236c-0.074,0.027-0.161,0.017-0.237,0.022
		c-0.481-0.377-0.724-0.852-0.864-1.452c-0.131-0.559-0.249-1.135-0.469-1.675c-0.033-0.084-0.092-0.128-0.151-0.222
		c-0.749-0.082-1.47-0.356-2.059-0.827c-0.608-0.486-1.185-1.045-1.439-1.754c-0.625-0.256-1.265-0.105-1.859-0.317
		c-0.148-0.053-0.335,0.018-0.496-0.013c-0.631-0.117-1.282-0.134-1.863-0.482c-0.191-0.114-0.278-0.207-0.263-0.429
		c0.288-0.439,0.789-0.578,1.243-0.69c0.757-0.188,1.514-0.394,2.286-0.517c0.215-0.034,0.411-0.122,0.631-0.153
		c0.18-0.025,0.396-0.154,0.506-0.429c0.225-0.554,0.573-1.068,1.051-1.43c0.541-0.406,1.047-0.891,1.754-1.035
		c0.202-0.04,0.351-0.271,0.594-0.191c0.281-0.56,0.386-1.155,0.549-1.729c0.192-0.671,0.415-1.309,0.941-1.781
		c0.141,0,0.265,0,0.347,0c0.666,0.441,0.794,1.128,0.981,1.801c0.14,0.501,0.187,1.035,0.451,1.52
		c0.511,0.095,0.958,0.318,1.404,0.551c0.719,0.375,1.334,0.854,1.684,1.611c0.205,0.445,0.538,0.622,1.035,0.657
		c0.465,0.031,0.936,0.114,1.401,0.205c0.304,0.059,0.629,0.104,0.939,0.162c0.284,0.053,0.552,0.185,0.779,0.378
		c0.081,0.069,0.033,0.154,0.053,0.246C30.578,45.377,30.199,45.485,29.862,45.617z M23.589,38.995
		c1.324,0.3,2.53,0.657,3.577,1.466c1.053,0.814,1.872,1.764,2.222,3.184c-0.689-0.095-1.34-0.121-2.004-0.301
		c-0.737-1.331-1.899-2.164-3.352-2.608C23.887,40.161,23.744,39.602,23.589,38.995z M34.617,35.922
		c0.116,1.029-0.486,1.562-1.366,1.952c-0.186,0-0.436,0-0.609,0c-0.592,0.197-0.819,0.737-1.282,1.008
		c-0.458,0.267-0.711,0.785-1.223,1.066c0.008,0.547-0.095,1.104-0.58,1.562c-0.867-1.168-1.926-2.09-3.372-2.61
		c0.502-0.369,1.006-0.566,1.622-0.522c0.827-0.711,1.668-1.435,2.545-2.189c0-0.175,0-0.398,0-0.476
		c0.397-1.172,1.251-1.399,2.237-1.482c0.353-0.47,0.947-0.725,1.326-1.218c0.658,0.571,1.309,1.137,1.992,1.732
		C35.523,35.235,35.069,35.579,34.617,35.922z M40.955,37.767c-0.854-0.058-1.625-0.241-2.073-1.134c0-0.18,0-0.428,0-0.65
		c-0.207-0.377-0.603-0.503-0.874-0.776c-0.27-0.271-0.487-0.61-0.869-0.76c-0.054-0.021-0.094-0.083-0.134-0.13
		c-0.455-0.535-1.04-0.927-1.55-1.4c-0.655-0.607-1.35-1.171-2.014-1.771c-0.648-0.584-1.322-1.141-1.974-1.723
		c-0.682-0.608-1.379-1.2-2.062-1.81c-0.649-0.582-1.355-1.102-1.963-1.735c-0.659,0.042-1.181-0.269-1.66-0.664
		c-0.249-0.206-0.44-0.479-0.819-0.614c0.167-0.167,0.302-0.301,0.444-0.445c-0.621-0.555-1.205-1.105-1.818-1.621
		c-0.732-0.617-1.445-1.253-2.155-1.894c-0.648-0.585-1.321-1.142-1.972-1.724c-0.667-0.596-1.353-1.168-2.018-1.768
		c-0.665-0.596-1.358-1.161-2.02-1.764c-0.267-0.242-0.574-0.45-0.818-0.721c-0.248-0.275-0.637-0.375-0.859-0.81
		c0.033-0.019,0.122-0.059,0.2-0.117c0.103-0.076,0.031-0.194,0.062-0.312c-0.307-0.157-0.577-0.35-0.937-0.446
		c-0.553-0.147-1.113-0.373-1.324-1.012c-0.018-0.054-0.069-0.097-0.099-0.138c-0.125-0.542,0.068-0.984,0.5-1.274
		c0.421-0.28,0.923-0.394,1.426-0.28c0.295,0.065,0.593,0.196,0.847,0.36c0.284,0.185,0.485,0.456,0.592,0.805
		c0.117,0.389,0.355,0.711,0.722,0.941c0.206,0.088,0.333-0.25,0.592-0.165c0.108,0.124,0.215,0.251,0.327,0.373
		c0.51,0.565,1.13,1.012,1.687,1.527c0.373,0.344,0.738,0.704,1.127,1.033c0.808,0.686,1.59,1.402,2.382,2.107
		c0.364,0.325,0.731,0.649,1.079,0.991c0.248,0.242,0.567,0.387,0.798,0.653c0.224,0.257,0.446,0.533,0.78,0.673
		c0.07,0.03,0.123,0.11,0.177,0.173c0.556,0.637,1.253,1.125,1.864,1.706c0.332,0.316,0.691,0.622,0.994,0.897
		c0.314,0.123,0.384-0.173,0.628-0.246c0.426,0.457,0.945,0.855,1.314,1.488c0,0.112,0,0.294,0,0.436
		c0.56,0.667,1.24,1.143,1.839,1.706c0.709,0.667,1.465,1.29,2.19,1.949c0.799,0.726,1.61,1.441,2.416,2.162
		c0.789,0.708,1.583,1.411,2.369,2.122c0.74,0.668,1.522,1.291,2.232,1.995c0.109,0.108,0.258,0.18,0.422,0.291
		c1.105-0.161,1.941,0.721,1.801,1.716c0.791,0.527,1.373,1.312,2.164,1.863c0.219,0.107,0.478-0.037,0.702,0.099
		c0.197,0.119,0.455,0.1,0.663,0.302c-0.312,0.29-0.739,0.408-1.035,0.707c-0.314,0.318-0.733,0.52-1.007,0.885
		c-0.264,0.35-0.473,0.741-0.799,1.046c-0.437-0.336-0.454-0.816-0.441-1.314C42.317,38.959,41.63,38.355,40.955,37.767z
		 M48.237,49.441c-0.763-0.096-1.425-0.328-2.069-0.674c-0.674-0.363-1.251-0.83-1.717-1.404c-0.448-0.553-0.735-1.223-0.951-1.912
		c0.298-0.264,0.557,0.127,0.844,0.05c0.313-0.084,0.578,0.123,0.895,0.155c0.203,0.375,0.455,0.726,0.754,1.054
		c0.328,0.361,1.002,0.868,1.508,1.041c0.356,0.123,0.585,0.346,0.633,0.754c0.032,0.266,0.145,0.521,0.215,0.781
		C48.373,49.385,48.256,49.398,48.237,49.441z M50.997,49.245c0.006-0.508,0.337-0.945,0.238-1.477
		c1.229-0.594,2.241-1.412,2.712-2.693c0.541-0.148,1.023-0.28,1.544-0.423C55.268,46.346,53.576,48.503,50.997,49.245z
		 M55.425,44.137c-0.492,0.104-0.964,0.298-1.469,0.384c-0.183,0.029-0.397,0.167-0.503,0.441c-0.246,0.645-0.7,1.165-1.222,1.616
		c-0.372,0.32-0.808,0.545-1.228,0.729c-0.288,0.295-0.295,0.674-0.36,1.004c-0.082,0.403-0.214,0.795-0.292,1.2
		c-0.059,0.304-0.225,0.637-0.549,0.852c-0.109,0-0.249,0-0.399,0c-0.608-0.843-0.598-1.884-0.952-2.832
		c-1.264-0.349-2.284-1.039-2.719-2.359c-0.488-0.188-0.995-0.128-1.474-0.281c-0.294-0.094-0.627-0.045-0.948-0.122
		c-0.425-0.099-0.797-0.22-1.031-0.566c0.167-0.627,0.791-0.563,1.199-0.826c0.6-0.009,1.132-0.306,1.718-0.388
		c0.305-0.042,0.548-0.211,0.695-0.56c0.231-0.551,0.578-1.052,1.062-1.425c0.386-0.298,0.809-0.551,1.256-0.742
		c0.185-0.079,0.277-0.224,0.399-0.317c0.051-0.51,0.2-0.98,0.351-1.443c0.055-0.172-0.002-0.343,0.102-0.521
		c0.18-0.312,0.339-0.63,0.646-0.857c0.15-0.048,0.207,0.193,0.358,0.145c0.524,0.829,0.605,1.795,0.843,2.724
		c0.356,0.239,0.835,0.27,1.146,0.535c0.308,0.264,0.673,0.46,0.919,0.84c0.233,0.361,0.412,0.761,0.646,1.1
		c0.479,0.065,0.92,0.146,1.355,0.272c0.261,0.075,0.547,0.058,0.824,0.115c0.362,0.076,0.625,0.219,0.855,0.516
		C56.338,43.797,55.941,44.029,55.425,44.137z M51.133,38.163c1.061,0.205,2.011,0.626,2.794,1.34
		c0.798,0.726,1.403,1.59,1.588,2.734c-0.462,0.062-0.81-0.236-1.136-0.118c-0.378-0.128-0.484-0.407-0.651-0.675
		c-0.413-0.662-0.992-1.174-1.718-1.51c-0.189-0.087-0.414-0.126-0.604-0.35C51.32,39.149,51.073,38.688,51.133,38.163z
		 M57.823,25.765c-0.433-0.097-0.671-0.437-0.956-0.712c-0.284-0.275-0.561-0.559-0.862-0.86c0.228-0.192,0.457-0.386,0.713-0.603
		c-0.241-0.341-0.499-0.547-0.724-0.78c-0.215-0.226-0.44-0.442-0.666-0.668c-0.211,0.212-0.424,0.425-0.651,0.653
		c-0.287-0.158-0.453-0.401-0.66-0.593c-0.197-0.185-0.385-0.381-0.575-0.573c-0.323,0.362-0.815,0.539-1.096,1.03
		c0.377,0.377,0.766,0.765,1.159,1.158c-0.261,0.212-0.427,0.512-0.75,0.626c0.472,0.471,0.941,0.942,1.42,1.419
		c0.212-0.212,0.425-0.426,0.649-0.651c0.765,0.383,1.194,1.093,1.799,1.581c0,0.065,0.018,0.13-0.003,0.145
		c-0.844,0.605-1.489,1.421-2.242,2.123c-0.119,0.112-0.213,0.276-0.495,0.127c-0.19-0.199-0.448-0.47-0.697-0.731
		c0.386-0.292,0.714-0.687,1.044-0.995c-0.383-0.383-0.746-0.747-1.125-1.127c-0.305,0.304-0.691,0.691-1.051,1.05
		c-0.324-0.323-0.611-0.609-0.913-0.914c0.421-0.276,0.753-0.702,1.139-1.055c-0.28-0.515-0.807-0.672-1.144-1.107
		c-0.426,0.403-0.775,0.833-1.231,1.052c-0.303-0.303-0.59-0.59-0.899-0.899c0.267-0.121,0.468-0.367,0.688-0.592
		c0.561-0.573,1.188-1.074,1.777-1.614c0.391-0.357,0.757-0.748,1.174-1.073c0.567-0.444,1.027-1.011,1.59-1.447
		c0.428-0.33,0.767-0.735,1.145-1.042c0.276,0.276,0.557,0.556,0.872,0.873c-0.342,0.296-0.621,0.732-1.069,0.922
		c0.366,0.364,0.723,0.721,1.11,1.111c0.333-0.278,0.732-0.613,1.111-0.931c0.27,0.269,0.542,0.542,0.844,0.843
		c0,0.02,0,0.103,0,0.183c-0.444,0.176-0.654,0.608-1.046,0.89c0.316,0.417,0.691,0.725,1.058,1.119
		c0.339-0.459,0.839-0.649,1.134-1.035c0.273,0.272,0.543,0.543,0.809,0.808C59.521,24.295,58.549,24.888,57.823,25.765z"/>
	<path fill-rule="evenodd" clip-rule="evenodd" fill="#FFFFFF" d="M24.397,47.271c-0.681-0.128-1.255,0.188-1.882,0.093
		c0,0.413,0,0.784,0,1.112c-0.16,0.314-0.299,0.59-0.45,0.889c-0.312-0.222-0.311-0.646-0.572-0.938c0-0.321,0-0.671,0-1.026
		c-0.605,0.253-1.248-0.055-1.836,0.196c-0.249-0.148-0.141-0.4-0.155-0.614c-0.013-0.227-0.002-0.455-0.002-0.666
		c-0.072-0.074-0.129-0.133-0.187-0.192c-0.891,0.362-1.652-0.021-2.475-0.419c0.381-0.188,0.706-0.373,1.026-0.565
		c0.256-0.154,0.584-0.222,0.888-0.251c0.229-0.023,0.418-0.098,0.625-0.197c-0.032-0.497,0.054-1.008-0.059-1.533
		c0.52-0.268,1.158-0.122,1.794-0.166c0-0.285,0-0.55,0-0.675c0.154-0.476,0.451-0.676,0.697-0.944
		c0.557,0.536,0.847,1.158,0.653,1.944c0.617,0.213,1.184-0.163,1.782-0.047c0,0.445,0,0.878,0,1.355
		c0.451,0,0.897-0.067,1.309,0.019c0.365,0.076,0.702,0.307,1.065,0.402c0.025,0.145-0.031,0.172-0.153,0.213
		c-0.216,0.075-0.403,0.23-0.616,0.32c-0.196,0.085-0.382,0.218-0.618,0.171c-0.288-0.058-0.52,0.219-0.835,0.101
		C24.397,46.324,24.397,46.756,24.397,47.271z"/>
	<path fill-rule="evenodd" clip-rule="evenodd" fill="#FFFFFF" d="M45.844,43.944c0.644-0.273,1.161-0.748,1.894-0.694
		c0-0.5,0-0.974,0-1.425c0.08-0.08,0.14-0.14,0.198-0.199c0.373,0,0.748,0,1.166,0c0.01-0.217,0.021-0.437,0.035-0.69
		c0.232-0.155,0.27-0.506,0.551-0.668c0.299,0.176,0.373,0.526,0.562,0.821c0,0.264,0,0.556,0,0.866
		c0.17,0.062,0.325,0.055,0.509-0.016c0.285-0.11,0.588-0.158,0.864,0.105c0,0.341,0,0.688,0,1.058c0.368,0,0.716,0,1.034,0
		c0.228,0.217,0.55,0.218,0.715,0.463c-0.2,0.265-0.596,0.242-0.766,0.527c-0.355,0.121-0.752-0.106-1.079,0.158
		c0.187,0.359,0.051,0.722,0.121,1.123c-0.475-0.059-0.878,0.215-1.364,0.107c-0.072,0.315-0.008,0.623-0.048,0.963
		c-0.16,0.247-0.342,0.525-0.533,0.819c-0.265-0.242-0.382-0.562-0.577-0.847c0-0.27,0-0.562,0-0.876
		c-0.446,0.161-0.897,0.043-1.366,0.096c0-0.432,0-0.821,0-1.19c-0.105-0.113-0.216-0.056-0.312-0.07
		c-0.188-0.03-0.303,0.204-0.513,0.13c-0.075-0.024-0.142-0.056-0.214-0.088C46.421,44.289,46.137,44.137,45.844,43.944z"/>
</g>
</svg>
